<svg xmlns="http://www.w3.org/2000/svg" viewBox="0 0 100 100" width="100" height="100">
  <defs>
    <linearGradient id="rmRingGrad" x1="0%" y1="0%" x2="100%" y2="100%">
      <stop offset="0%" stopColor="#10B981" />
      <stop offset="50%" stopColor="#059669" />
      <stop offset="100%" stopColor="#047857" />
    </linearGradient>
    <linearGradient id="rmBgGrad" x1="0%" y1="0%" x2="100%" y2="100%">
      <stop offset="0%" stopColor="#ECFDF5" />
      <stop offset="100%" stopColor="#D1FAE5" />
    </linearGradient>
  </defs>
  <circle cx="50" cy="50" r="48" fill="url(#rmBgGrad)" />
  <circle cx="50" cy="50" r="45" stroke="url(#rmRingGrad)" stroke-width="3" stroke-dasharray="90 8 18 8" stroke-linecap="round" fill="none" />
  <path d="M 18 52 C 20 28, 38 12, 60 12" stroke="#10B981" stroke-width="2.5" stroke-linecap="round" opacity="0.6" fill="none" />
  <g transform="translate(42, 18)">
    <path d="M8 0 C3.6 0 0 3.6 0 8 C0 14 8 22 8 22 C8 22 16 14 16 8 C16 3.6 12.4 0 8 0 Z" fill="#059669" />
    <circle cx="8" cy="8" r="3.5" fill="#FFFFFF" />
  </g>
  <g transform="translate(20, 44)">
    <ellipse cx="30" cy="38" rx="24" ry="4" fill="#0F172A" opacity="0.18" />
    <path d="M 10 24 C 10 20, 14 14, 18 12 C 22 10, 38 10, 42 12 C 46 14, 50 20, 50 24 L 54 26 C 57 27, 58 29, 58 32 L 58 35 C 58 36.5, 56.5 37, 54 37 L 6 37 C 3.5 37, 2 36.5, 2 35 L 2 32 C 2 29, 3 27, 6 26 Z" fill="#059669" stroke="#047857" stroke-width="1.5" />
    <path d="M 17 14 C 19 12, 39 12, 43 14 C 46 16, 48 21, 48 23 L 12 23 C 12 21, 14 16, 17 14 Z" fill="#ECFDF5" stroke="#047857" stroke-width="1" />
    <line x1="30" y1="13" x2="30" y2="23" stroke="#059669" stroke-width="1.5" />
    <circle cx="6" cy="31" r="2.5" fill="#FDE047" />
    <circle cx="54" cy="31" r="2.5" fill="#FDE047" />
    <circle cx="14" cy="37" r="6" fill="#1E293B" />
    <circle cx="14" cy="37" r="2.5" fill="#CBD5E1" />
    <circle cx="46" cy="37" r="6" fill="#1E293B" />
    <circle cx="46" cy="37" r="2.5" fill="#CBD5E1" />
  </g>
</svg>
